<?xml version="1.0" encoding="utf-8"?>
<!-- Generator: Adobe Illustrator 19.1.0, SVG Export Plug-In . SVG Version: 6.00 Build 0)  -->
<svg version="1.1" id="Layer_1" xmlns="http://www.w3.org/2000/svg" xmlns:xlink="http://www.w3.org/1999/xlink" x="0px" y="0px"
	 viewBox="-993 775 500 500" style="enable-background:new -993 775 500 500;" xml:space="preserve">
<g>
	<path d="M-555.9,884.7c0-9.4-6.2-15.6-15.6-15.6h-343c-9.4,0-15.6,6.2-15.6,15.6v31.2c0,9.4,6.2,15.6,15.6,15.6h343
		c9.4,0,15.6-6.2,15.6-15.6V884.7z"/>
	<path d="M-555.9,1009.4c0-9.4-6.2-15.6-15.6-15.6h-343c-9.4,0-15.6,6.2-15.6,15.6v31.2c0,9.4,6.2,15.6,15.6,15.6h343
		c9.4,0,15.6-6.2,15.6-15.6V1009.4z"/>
	<path d="M-555.9,1134.1c0-9.4-6.2-15.6-15.6-15.6h-343c-9.4,0-15.6,6.2-15.6,15.6v31.2c0,9.4,6.2,15.6,15.6,15.6h343
		c9.4,0,15.6-6.2,15.6-15.6V1134.1z"/>
</g>
</svg>
