<?xml version="1.0" encoding="utf-8"?>
<!-- Generator: Adobe Illustrator 19.1.0, SVG Export Plug-In . SVG Version: 6.00 Build 0)  -->
<svg version="1.1" id="Capa_1" xmlns="http://www.w3.org/2000/svg" xmlns:xlink="http://www.w3.org/1999/xlink" x="0px" y="0px"
	 viewBox="-538.5 774.5 500 500" style="enable-background:new -538.5 774.5 500 500;" xml:space="preserve">
<g>
	<g>
		<path d="M-369.6,981.8c-5.3,5.3-5.3,13.8,0,19.1l71.6,71.6c2.6,2.6,6.1,4,9.5,4s6.9-1.3,9.5-4l71.6-71.6c5.3-5.3,5.3-13.8,0-19.1
			s-13.8-5.3-19.1,0l-48.5,48.5V798.5c0-7.5-6-13.5-13.5-13.5s-13.5,6-13.5,13.5v231.8l-48.5-48.5
			C-355.8,976.5-364.4,976.5-369.6,981.8z"/>
		<path d="M-67.8,1092.4l-47-170c-1.1-3.9-3.8-7-7.4-8.7l-1.3-0.6c-1.8-0.8-3.7-1.2-5.6-1.2h-84.7c-7.5,0-13.5,6-13.5,13.5
			s6,13.5,13.5,13.5h75.6l39.7,143.8h-105c-7.5,0-13.5,6-13.5,13.5v12.2c0,17.9-14.5,32.4-32.4,32.4h-82.4
			c-17.9,0-32.4-14.5-32.4-32.4v-12.2c0-7.5-6-13.5-13.5-13.5h-100.9l39.9-144.1h75.6c7.5,0,13.5-6,13.5-13.5s-6-13.5-13.5-13.5
			h-84.8c-1.9,0-3.8,0.4-5.6,1.2l-1.3,0.6c-3.6,1.7-6.4,4.8-7.4,8.7l-47,170c-0.3,1.2-0.5,2.4-0.5,3.6v70.9
			c0,53.7,43.7,97.4,97.4,97.4h247.6c53.7,0,97.4-43.7,97.4-97.4V1096C-67.3,1094.7-67.4,1093.5-67.8,1092.4z M-94.3,1166.6
			c0,38.8-31.6,70.4-70.4,70.4h-247.6c-38.8,0-70.4-31.6-70.4-70.4v-56.9h91.7c0.7,32.1,27.1,58,59.4,58h82.4
			c32.3,0,58.7-25.9,59.4-58h95.7v56.9H-94.3z"/>
	</g>
</g>
</svg>
