<?xml version="1.0" encoding="utf-8"?>
<!-- Generator: Adobe Illustrator 19.1.0, SVG Export Plug-In . SVG Version: 6.00 Build 0)  -->
<svg version="1.1" id="Capa_1" xmlns="http://www.w3.org/2000/svg" xmlns:xlink="http://www.w3.org/1999/xlink" x="0px" y="0px"
	 viewBox="-995.2 775.2 500 500" style="enable-background:new -995.2 775.2 500 500;" xml:space="preserve">
<g>
	<path d="M-604.2,981.6l-9.1-23.6c0,0,23.6-52.7,21.8-54.6l-30.9-29.1c-1.8-1.8-54.6,21.8-54.6,21.8l-23.6-9.1
		c0,0-21.8-52.7-23.6-52.7h-43.6c-3.6,0-21.8,52.7-21.8,52.7l-23.6,9.1c0,0-52.7-21.8-54.6-20l-30.9,29.1
		c-1.8,1.8,21.8,52.7,21.8,52.7l-9.1,23.6c0,0-54.6,20-54.6,23.6v41.8c0,3.6,54.6,21.8,54.6,21.8l9.1,23.6c0,0-23.6,52.7-21.8,54.6
		l30.9,29.1c1.8,1.8,54.6-21.8,54.6-21.8l23.6,9.1c0,0,21.8,52.7,23.6,52.7h43.6c3.6,0,21.8-52.7,21.8-52.7l23.6-9.1
		c0,0,52.7,21.8,54.6,20l30.9-29.1c1.8-1.8-21.8-52.7-21.8-52.7l9.1-23.6c0,0,54.6-20,54.6-23.6v-41.8
		C-549.7,999.7-604.2,981.6-604.2,981.6z M-682.5,1025.2c0,34.6-29.1,61.8-63.7,61.8s-63.7-27.3-63.7-61.8s29.1-61.8,63.7-61.8
		C-711.6,963.4-682.5,990.6-682.5,1025.2z"/>
</g>
</svg>
