<?xml version="1.0" encoding="utf-8"?>
<!-- Generator: Adobe Illustrator 19.1.0, SVG Export Plug-In . SVG Version: 6.00 Build 0)  -->
<svg version="1.1" id="Layer_1" xmlns="http://www.w3.org/2000/svg" xmlns:xlink="http://www.w3.org/1999/xlink" x="0px" y="0px"
	 viewBox="-829.1 775.1 500 500" style="enable-background:new -829.1 775.1 500 500;" xml:space="preserve">
<g>
	<path d="M-411.5,990.9c-1.2-5.9-7-9.7-12.9-8.5c-0.8,0.2-1.5,0.4-2.2,0.7c-4.6,2-7.3,7-6.3,12.2c11.6,56.9-11.2,115.8-58,150.2
		c-31.9,23.4-71.3,32.9-110.9,26.8c-39.6-6.1-74.3-27-97.7-59c-48.7-66.4-34.2-160,32.1-208.6c31.9-23.4,71.3-32.9,110.9-26.8
		c38.5,5.9,72.3,25.9,95.6,56.3l-10-1.4c-6-0.9-11.5,3.3-12.4,9.3c-0.9,6,3.3,11.5,9.3,12.4l36.3,5.2c0.2,0,0.5,0,0.7,0.1
		c0.3,0,0.6,0.1,0.9,0.1c5.3,0,10-3.9,10.8-9.4l5.2-36.3c0.9-6-3.3-11.5-9.3-12.4c-6-0.9-11.5,3.3-12.4,9.3l-1.5,10.3
		c-26.8-35.1-65.7-58.1-109.9-64.9c-45.4-7-90.5,4-127.2,30.8c-36.6,26.9-60.7,66.6-67.6,112c-7,45.4,3.9,90.5,30.8,127.2
		c26.9,36.6,66.6,60.7,112,67.6c8.9,1.4,17.9,2.1,26.7,2.1c36.1,0,71-11.3,100.4-32.9C-424.3,1123.7-398.2,1056.2-411.5,990.9
		L-411.5,990.9z"/>
	<path d="M-519.6,1029.2h-37.3c-2.7-6.2-7.7-11.2-13.9-13.9v-83.8c0-6-4.9-10.9-10.9-10.9c-6,0-10.9,4.9-10.9,10.9v83.8
		c-9.5,4.2-16.2,13.7-16.2,24.8c0,15,12.2,27.1,27.1,27.1c11.1,0,20.6-6.7,24.8-16.2h37.3c6,0,10.9-4.9,10.9-10.9
		S-513.6,1029.2-519.6,1029.2z M-587,1040.1c0-2.9,2.4-5.3,5.3-5.3c2.9,0,5.3,2.4,5.3,5.3s-2.4,5.3-5.3,5.3
		C-584.6,1045.4-587,1043-587,1040.1z"/>
</g>
</svg>
