<?xml version="1.0" encoding="utf-8"?>
<!-- Generator: Adobe Illustrator 19.1.0, SVG Export Plug-In . SVG Version: 6.00 Build 0)  -->
<svg version="1.1" id="Capa_1" xmlns="http://www.w3.org/2000/svg" xmlns:xlink="http://www.w3.org/1999/xlink" x="0px" y="0px"
	 viewBox="-545.4 775.4 500 500" style="enable-background:new -545.4 775.4 500 500;" xml:space="preserve">
<g>
	<g>
		<path d="M-73.3,1020c-7.5,0-13.5,6-13.5,13.5v122.8c0,33.4-27.2,60.5-60.5,60.5h-296.2c-33.4,0-60.5-27.2-60.5-60.5v-124.8
			c0-7.5-6-13.5-13.5-13.5c-7.5,0-13.5,6-13.5,13.5v124.8c0,48.3,39.3,87.5,87.5,87.5h296.2c48.3,0,87.5-39.3,87.5-87.5v-122.8
			C-59.8,1026.1-65.8,1020-73.3,1020z"/>
		<path d="M-304.9,1136.6c2.6,2.6,6.1,4,9.5,4s6.9-1.3,9.5-4l85.8-85.8c5.3-5.3,5.3-13.8,0-19.1s-13.8-5.3-19.1,0l-62.7,62.8V820.6
			c0-7.5-6-13.5-13.5-13.5s-13.5,6-13.5,13.5v273.9l-62.8-62.8c-5.3-5.3-13.8-5.3-19.1,0c-5.3,5.3-5.3,13.8,0,19.1L-304.9,1136.6z"
			/>
	</g>
</g>
</svg>
