<?xml version="1.0" encoding="utf-8"?>
<!-- Generator: Adobe Illustrator 19.1.0, SVG Export Plug-In . SVG Version: 6.00 Build 0)  -->
<svg version="1.1" id="Layer_1" xmlns="http://www.w3.org/2000/svg" xmlns:xlink="http://www.w3.org/1999/xlink" x="0px" y="0px"
	 viewBox="-854.5 774.5 500 500" style="enable-background:new -854.5 774.5 500 500;" xml:space="preserve">
<g>
	<path d="M-655.1,1235.7h-57.8c-7.7,0-13.9-6.3-13.9-13.9V827.1c0-7.7,6.3-13.9,13.9-13.9h57.8c7.7,0,13.9,6.3,13.9,13.9v394.6
		C-641.1,1229.4-647.4,1235.7-655.1,1235.7z"/>
	<path d="M-496.1,1235.7h-57.8c-7.7,0-13.9-6.3-13.9-13.9V827.1c0-7.7,6.3-13.9,13.9-13.9h57.8c7.7,0,13.9,6.3,13.9,13.9v394.6
		C-482,1229.4-488.4,1235.7-496.1,1235.7z"/>
</g>
</svg>
