<?xml version="1.0" encoding="utf-8"?>
<!-- Generator: Adobe Illustrator 19.1.0, SVG Export Plug-In . SVG Version: 6.00 Build 0)  -->
<svg version="1.1" id="Capa_1" xmlns="http://www.w3.org/2000/svg" xmlns:xlink="http://www.w3.org/1999/xlink" x="0px" y="0px"
	 viewBox="-507 775 500 500" style="enable-background:new -507 775 500 500;" xml:space="preserve">
<g>
	<g id="speaker">
		<path d="M-175.2,861.4h-163.6c-18,0-32.7,14.7-32.7,32.7v261.7c0,18,14.7,32.7,32.7,32.7h163.6c18,0,32.7-14.7,32.7-32.7V894.1
			C-142.5,876.2-157.2,861.4-175.2,861.4z M-257,894.1c18,0,32.7,14.7,32.7,32.7s-14.7,32.7-32.7,32.7s-32.7-14.7-32.7-32.7
			S-275,894.1-257,894.1z M-257,1155.9c-45.8,0-81.8-36-81.8-81.8c0-45.8,36-81.8,81.8-81.8s81.8,36,81.8,81.8
			C-175.2,1119.9-211.2,1155.9-257,1155.9z M-257,1025c-27.8,0-49.1,21.3-49.1,49.1s21.3,49.1,49.1,49.1s49.1-21.3,49.1-49.1
			S-229.2,1025-257,1025z"/>
	</g>
</g>
</svg>
