<?xml version="1.0" encoding="utf-8"?>
<!-- Generator: Adobe Illustrator 19.1.0, SVG Export Plug-In . SVG Version: 6.00 Build 0)  -->
<svg version="1.1" id="Capa_1" xmlns="http://www.w3.org/2000/svg" xmlns:xlink="http://www.w3.org/1999/xlink" x="0px" y="0px"
	 viewBox="-936.9 774.9 500 500" style="enable-background:new -936.9 774.9 500 500;" xml:space="preserve">
<g>
	<path d="M-650.1,926.6c16.5,10.3,28,27.8,30.1,48c6.7,3.1,14.2,4.9,22.1,4.9c28.8,0,52.2-23.4,52.2-52.2
		c0-28.8-23.4-52.2-52.2-52.2C-626.5,875.2-649.7,898.2-650.1,926.6z M-684.3,1033.5c28.8,0,52.2-23.4,52.2-52.2
		c0-28.8-23.4-52.2-52.2-52.2c-28.8,0-52.2,23.4-52.2,52.2S-713.1,1033.5-684.3,1033.5z M-662.2,1037h-44.3
		c-36.8,0-66.8,30-66.8,66.8v54.2l0.1,0.8l3.7,1.2c35.2,11,65.7,14.6,90.8,14.6c49.1,0,77.6-14,79.3-14.9l3.5-1.8h0.4v-54.2
		C-595.4,1067-625.3,1037-662.2,1037z M-575.8,983.1h-43.9c-0.5,17.6-8,33.4-19.8,44.8c32.7,9.7,56.7,40.1,56.7,76v16.7
		c43.4-1.6,68.4-13.9,70-14.7l3.5-1.8h0.4V1050C-509,1013.1-539,983.1-575.8,983.1z M-775.9,979.6c10.2,0,19.7-3,27.8-8.1
		c2.6-16.7,11.5-31.3,24.3-41.2c0.1-1,0.1-1.9,0.1-2.9c0-28.8-23.4-52.2-52.2-52.2c-28.8,0-52.2,23.4-52.2,52.2
		C-828.1,956.2-804.7,979.6-775.9,979.6z M-729,1027.9c-11.8-11.3-19.3-27.1-19.8-44.5c-1.6-0.1-3.2-0.2-4.9-0.2H-798
		c-36.8,0-66.8,30-66.8,66.8v54.2l0.1,0.8l3.7,1.2c28.2,8.8,53.4,12.9,75.2,14.1v-16.4C-785.7,1068-761.8,1037.7-729,1027.9z"/>
</g>
</svg>
