<?xml version="1.0" encoding="utf-8"?>
<!-- Generator: Adobe Illustrator 19.1.0, SVG Export Plug-In . SVG Version: 6.00 Build 0)  -->
<svg version="1.1" id="Layer_1" xmlns="http://www.w3.org/2000/svg" xmlns:xlink="http://www.w3.org/1999/xlink" x="0px" y="0px"
	 viewBox="-547 775 500 500" style="enable-background:new -547 775 500 500;" xml:space="preserve">
<g>
	<path d="M-178.4,841h-237.3c-3.2,0-5.9,2.6-5.9,5.9v356.3c0,3.2,2.6,5.9,5.9,5.9h237.3c3.2,0,5.9-2.6,5.9-5.9V846.9
		C-172.5,843.6-175.1,841-178.4,841z M-184.2,1197.3h-225.5V852.7h225.5V1197.3z"/>
	<path d="M-146.4,1055.1c-1.9-2.7-5.5-3.3-8.2-1.4c-2.7,1.9-3.3,5.5-1.4,8.2c4.7,6.6,7.1,14.5,7.1,22.6c0,8.1-2.5,16-7.1,22.6
		c-1.9,2.7-1.2,6.3,1.4,8.2c1,0.7,2.2,1.1,3.4,1.1c1.8,0,3.7-0.9,4.8-2.5c6.1-8.6,9.3-18.8,9.3-29.4S-140.3,1063.8-146.4,1055.1
		L-146.4,1055.1z"/>
	<path d="M-126.6,1041.3c-1.9-2.7-5.5-3.3-8.2-1.4c-2.7,1.9-3.3,5.5-1.4,8.2c7.5,10.7,11.5,23.3,11.5,36.5c0,13.1-4,25.7-11.5,36.5
		c-1.9,2.7-1.2,6.3,1.4,8.2c1,0.7,2.2,1.1,3.4,1.1c1.8,0,3.7-0.9,4.8-2.5c8.9-12.7,13.6-27.6,13.6-43.2
		C-113,1068.9-117.7,1054-126.6,1041.3z"/>
	<path d="M-439.5,1053.7c-2.7-1.9-6.3-1.2-8.2,1.4c-6.1,8.6-9.3,18.8-9.3,29.4c0,10.6,3.2,20.7,9.3,29.4c1.1,1.6,3,2.5,4.8,2.5
		c1.2,0,2.3-0.3,3.4-1.1c2.7-1.9,3.3-5.5,1.4-8.2c-4.7-6.6-7.1-14.5-7.1-22.6c0-8.1,2.5-16,7.1-22.6
		C-436.2,1059.2-436.8,1055.6-439.5,1053.7z"/>
	<path d="M-469.3,1084.5c0-13.1,4-25.7,11.5-36.5c1.9-2.7,1.2-6.3-1.4-8.2c-2.7-1.9-6.3-1.2-8.2,1.4c-8.9,12.7-13.6,27.6-13.6,43.2
		c0,15.6,4.7,30.5,13.6,43.2c1.1,1.6,3,2.5,4.8,2.5c1.2,0,2.3-0.3,3.4-1.1c2.7-1.9,3.3-5.5,1.4-8.2
		C-465.3,1110.2-469.3,1097.6-469.3,1084.5z"/>
	<path d="M-297,1168.6c46.3,0,84.1-37.7,84.1-84.1c0-46.3-37.7-84.1-84.1-84.1s-84.1,37.7-84.1,84.1
		C-381.1,1130.8-343.3,1168.6-297,1168.6z M-297,1012.2c39.9,0,72.3,32.4,72.3,72.3c0,39.9-32.4,72.3-72.3,72.3
		s-72.3-32.4-72.3-72.3S-336.9,1012.2-297,1012.2z"/>
	<path d="M-279.4,1084.5c0-9.5-8.1-17.6-17.6-17.6s-17.6,8.1-17.6,17.6c0,9.5,8.1,17.6,17.6,17.6S-279.4,1094-279.4,1084.5z
		 M-297,1090.4c-3.1,0-5.9-2.7-5.9-5.9c0-3.1,2.7-5.9,5.9-5.9s5.9,2.7,5.9,5.9C-291.1,1087.6-293.9,1090.4-297,1090.4z"/>
	<path d="M-297,979.8c27.1,0,49.2-22.1,49.2-49.2c0-27.1-22.1-49.2-49.2-49.2s-49.2,22.1-49.2,49.2S-324.1,979.8-297,979.8z
		 M-297,893.2c20.6,0,37.4,16.8,37.4,37.4c0,20.6-16.8,37.4-37.4,37.4s-37.4-16.8-37.4-37.4S-317.6,893.2-297,893.2z"/>
	<path d="M-297,956.3c14.2,0,25.7-11.5,25.7-25.7s-11.5-25.7-25.7-25.7s-25.7,11.5-25.7,25.7S-311.2,956.3-297,956.3z M-297,916.7
		c7.7,0,14,6.3,14,14c0,7.7-6.3,14-14,14s-14-6.3-14-14S-304.7,916.7-297,916.7z"/>
	<path d="M-310,1143.6c3.2,0.7,6.3-1.3,7-4.5c0.7-3.2-1.3-6.3-4.5-7c-22.2-4.9-38.3-24.9-38.3-47.7c0-26.9,21.9-48.8,48.8-48.8
		s48.8,21.9,48.8,48.8c0,22.7-16.1,42.8-38.3,47.7c-3.2,0.7-5.2,3.8-4.5,7c0.6,2.7,3,4.6,5.7,4.6c0.4,0,0.8,0,1.3-0.1
		c27.6-6.1,47.6-30.9,47.6-59.1c0-33.4-27.2-60.6-60.6-60.6s-60.6,27.2-60.6,60.6C-357.6,1112.7-337.6,1137.6-310,1143.6z"/>
</g>
</svg>
