<?xml version="1.0" encoding="utf-8"?>
<!-- Generator: Adobe Illustrator 19.1.0, SVG Export Plug-In . SVG Version: 6.00 Build 0)  -->
<svg version="1.1" id="Capa_1" xmlns="http://www.w3.org/2000/svg" xmlns:xlink="http://www.w3.org/1999/xlink" x="0px" y="0px"
	 viewBox="-667 775 500 500" style="enable-background:new -667 775 500 500;" xml:space="preserve">
<g>
	<path d="M-417,1021.2c38.9,0,70.5-38.3,70.5-85.6c0-47.3-10.4-85.6-70.5-85.6s-70.5,38.3-70.5,85.6
		C-487.5,982.9-455.9,1021.2-417,1021.2z"/>
	<path d="M-550.1,1151.9C-550.1,1149-550.1,1151-550.1,1151.9L-550.1,1151.9z"/>
	<path d="M-283.9,1154.1C-283.9,1153.3-283.9,1148.6-283.9,1154.1L-283.9,1154.1z"/>
	<path d="M-284.1,1148.4c-1.3-82.3-12.1-105.8-94.4-120.7c0,0-11.6,14.8-38.6,14.8s-38.6-14.8-38.6-14.8
		c-81.4,14.7-92.8,37.8-94.3,118c-0.1,6.5-0.2,6.9-0.2,6.1c0,1.4,0,4.1,0,8.7c0,0,19.6,39.5,133.1,39.5
		c113.5,0,133.1-39.5,133.1-39.5c0-3,0-5,0-6.4C-283.9,1154.6-284,1153.7-284.1,1148.4z"/>
</g>
</svg>
