<?xml version="1.0" encoding="utf-8"?>
<!-- Generator: Adobe Illustrator 19.1.0, SVG Export Plug-In . SVG Version: 6.00 Build 0)  -->
<svg version="1.1" id="Capa_1" xmlns="http://www.w3.org/2000/svg" xmlns:xlink="http://www.w3.org/1999/xlink" x="0px" y="0px"
	 viewBox="-766.8 774.8 500 500" style="enable-background:new -766.8 774.8 500 500;" xml:space="preserve">
<g id="Search">
	<path d="M-321.3,1171.8l-89.4-89.4c-0.5-0.5-1-0.8-1.5-1.2c17.6-26.7,27.8-58.6,27.8-92.9c0-93.4-75.7-169.1-169.1-169.1
		s-169.1,75.7-169.1,169.1c0,93.4,75.7,169.1,169.1,169.1c34.3,0,66.3-10.3,92.9-27.8c0.4,0.5,0.8,1.1,1.2,1.5l89.4,89.4
		c13.4,13.4,35.2,13.4,48.6,0C-307.8,1207-307.8,1185.2-321.3,1171.8z M-553.4,1098.8c-61,0-110.5-49.5-110.5-110.5
		c0-61,49.5-110.5,110.5-110.5c61,0,110.5,49.5,110.5,110.5C-442.9,1049.3-492.4,1098.8-553.4,1098.8z"/>
</g>
</svg>
