<?xml version="1.0" encoding="utf-8"?>
<!-- Generator: Adobe Illustrator 19.1.0, SVG Export Plug-In . SVG Version: 6.00 Build 0)  -->
<svg version="1.1" id="Layer_1" xmlns="http://www.w3.org/2000/svg" xmlns:xlink="http://www.w3.org/1999/xlink" x="0px" y="0px"
	 viewBox="-516 768.8 500 500" style="enable-background:new -516 768.8 500 500;" xml:space="preserve">
<style type="text/css">
	.st0{fill:#231F20;}
</style>
<g>
	<g>
		<path class="st0" d="M-490.1,888.8h73.8V815h-73.8V888.8C-490.1,888.8-490.1,888.8-490.1,888.8z M-406,909.6h-94.6
			c-5.8,0-10.4-4.7-10.4-10.4v-94.7c0-5.8,4.7-10.4,10.4-10.4h94.6c5.8,0,10.4,4.7,10.4,10.4v94.6C-395.5,905-400.2,909.7-406,909.6
			L-406,909.6z"/>
		<path class="st0" d="M-31.4,862.3h-324.5c-5.8,0-10.4-4.7-10.4-10.4c0-5.8,4.7-10.4,10.4-10.4h324.5c5.8,0,10.4,4.7,10.4,10.4
			C-21,857.6-25.7,862.3-31.4,862.3z"/>
		<path class="st0" d="M-490.1,1055.8h73.8v-73.8h-73.8V1055.8C-490.1,1055.8-490.1,1055.8-490.1,1055.8z M-406,1076.5h-94.6
			c-5.8,0-10.4-4.7-10.4-10.4v-94.6c0-5.8,4.7-10.4,10.4-10.4h94.6c5.8,0,10.4,4.7,10.4,10.4v94.6
			C-395.5,1071.9-400.2,1076.5-406,1076.5z"/>
		<path class="st0" d="M-31.4,1029.2h-324.5c-5.8,0-10.4-4.7-10.4-10.4c0-5.8,4.7-10.4,10.4-10.4h324.5c5.8,0,10.4,4.7,10.4,10.4
			C-21,1024.7-25.7,1029.2-31.4,1029.2z"/>
		<path class="st0" d="M-490.1,1222.7h73.8v-73.8h-73.8V1222.7C-490.1,1222.7-490.1,1222.7-490.1,1222.7z M-406,1243.5h-94.6
			c-5.8,0-10.4-4.7-10.4-10.4v-94.6c0-5.8,4.7-10.4,10.4-10.4h94.6c5.8,0,10.4,4.7,10.4,10.4v94.6
			C-395.5,1238.8-400.2,1243.5-406,1243.5z"/>
		<path class="st0" d="M-31.4,1196.2h-324.5c-5.8,0-10.4-4.7-10.4-10.4s4.7-10.4,10.4-10.4h324.5c5.8,0,10.4,4.7,10.4,10.4
			S-25.7,1196.2-31.4,1196.2z"/>
	</g>
</g>
</svg>
