<?xml version="1.0" encoding="utf-8"?>
<!-- Generator: Adobe Illustrator 19.1.0, SVG Export Plug-In . SVG Version: 6.00 Build 0)  -->
<svg version="1.1" id="Layer_1" xmlns="http://www.w3.org/2000/svg" xmlns:xlink="http://www.w3.org/1999/xlink" x="0px" y="0px"
	 viewBox="-973 775 500 500" style="enable-background:new -973 775 500 500;" xml:space="preserve">
<g>
	<g>
		<g>
			<path d="M-726,840.2c-0.7-0.7-1.5-1.1-2.3-1.5l-40.2-40.2c-3.9-3.9-10.3-3.9-14.2,0c-3.9,3.9-3.9,10.2,0,14.2l24.6,24.6h-131.9
				c-34.6,0-62.6,28-62.6,62.6v250.4c0,34.6,28,62.6,62.6,62.6h135.6c5.8,0,10.4-4.7,10.4-10.4c0-5.8-4.7-10.4-10.4-10.4h-135.6
				c-23,0-41.7-18.7-41.7-41.7V899.8c0-23,18.7-41.7,41.7-41.7H-758l-24.6,24.6c-3.9,3.9-3.9,10.3,0,14.2c3.9,3.9,10.3,3.9,14.2,0
				l40.2-40.2c0.8-0.4,1.6-0.8,2.3-1.5c2.1-2,3-4.8,2.9-7.4C-723,844.9-723.9,842.2-726,840.2z"/>
		</g>
	</g>
	<g>
		<g>
			<path d="M-556.1,837.2h-135.6c-5.8,0-10.4,4.7-10.4,10.4c0,5.8,4.7,10.4,10.4,10.4h135.6c23,0,41.7,18.7,41.7,41.7v250.4
				c0,23-18.7,41.7-41.7,41.7H-688l24.6-24.6c3.9-3.9,3.9-10.3,0-14.2c-3.9-3.9-10.3-3.9-14.2,0l-40.2,40.2
				c-0.8,0.4-1.6,0.8-2.3,1.5c-2.1,2-3,4.8-2.9,7.4c-0.1,2.7,0.8,5.4,2.9,7.5c0.7,0.7,1.5,1.1,2.3,1.5l40.2,40.2
				c3.9,3.9,10.3,3.9,14.2,0c3.9-3.9,3.9-10.2,0-14.2l-24.6-24.6h131.9c34.6,0,62.6-28,62.6-62.6V899.8
				C-493.5,865.2-521.5,837.2-556.1,837.2z"/>
		</g>
	</g>
</g>
</svg>
