<?xml version="1.0" encoding="utf-8"?>
<!-- Generator: Adobe Illustrator 19.1.0, SVG Export Plug-In . SVG Version: 6.00 Build 0)  -->
<svg version="1.1" id="Capa_1" xmlns="http://www.w3.org/2000/svg" xmlns:xlink="http://www.w3.org/1999/xlink" x="0px" y="0px"
	 viewBox="-527 775 500 500" style="enable-background:new -527 775 500 500;" xml:space="preserve">
<g>
	<g>
		<path d="M-327.5,1104.2l15-24.2c3.6-5.8,1.8-13.3-4-16.9c-5.7-3.6-13.3-1.8-16.9,4l-15,24.2c-27.2,43.9-66,69.1-106.6,69.1h-54.8
			c-6.8,0-12.2,5.5-12.2,12.3c0,6.8,5.5,12.3,12.2,12.3h54.9C-405.6,1184.8-359.2,1155.4-327.5,1104.2z"/>
		<path d="M-35.6,868.7L-95,809.2c-4.8-4.8-12.5-4.8-17.3,0s-4.8,12.5,0,17.3l38.6,38.6c-0.1,0-0.1,0-0.2,0h-56.7
			c-49.2,0-95.7,29.4-127.4,80.6l-9.2,14.9c-3.6,5.8-1.8,13.3,4,16.9c2,1.2,4.2,1.8,6.4,1.8c4.1,0,8.1-2.1,10.4-5.8l9.2-14.9
			c27.2-43.9,66-69,106.6-69H-74c0.1,0,0.1,0,0.2,0l-38.6,38.6c-4.8,4.8-4.8,12.5,0,17.3c2.4,2.4,5.5,3.6,8.7,3.6s6.3-1.2,8.7-3.6
			l59.5-59.5C-30.8,881.2-30.8,873.3-35.6,868.7z M-61.7,877.5c0-0.1,0-0.1,0-0.2c0-0.1,0-0.1,0-0.2l0.2,0.2L-61.7,877.5z"/>
		<path d="M-112.4,1240.8c2.4,2.4,5.5,3.6,8.7,3.6s6.3-1.2,8.7-3.6l59.5-59.5c4.8-4.8,4.8-12.5,0-17.3l-59.5-59.4
			c-4.8-4.8-12.5-4.8-17.3,0c-4.8,4.8-4.8,12.5,0,17.3l38.6,38.6c-0.1,0-0.1,0-0.2,0h-54.9c-40.5,0-79.4-25.2-106.6-69.1
			l-90.2-145.7c-31.7-51.3-78.2-80.6-127.4-80.6h-56.8c-6.8,0-12.2,5.5-12.2,12.3s5.5,12.3,12.2,12.3h56.7
			c40.5,0,79.4,25.2,106.6,69l90.2,145.7c31.7,51.3,78.2,80.7,127.4,80.7H-74c0.1,0,0.1,0,0.2,0l-38.6,38.6
			C-117.1,1228.2-117.1,1235.9-112.4,1240.8z M-61.7,1172.4l0.2,0.2l-0.2,0.2c0-0.1,0-0.1,0-0.2S-61.7,1172.6-61.7,1172.4z"/>
	</g>
</g>
</svg>
