<?xml version="1.0" encoding="utf-8"?>
<!-- Generator: Adobe Illustrator 19.1.0, SVG Export Plug-In . SVG Version: 6.00 Build 0)  -->
<svg version="1.1" id="Layer_1" xmlns="http://www.w3.org/2000/svg" xmlns:xlink="http://www.w3.org/1999/xlink" x="0px" y="0px"
	 viewBox="-392.5 948.5 163 267" style="enable-background:new -392.5 948.5 163 267;" xml:space="preserve">
<style type="text/css">
	.st0{fill:none;stroke:#FFFFFF;stroke-width:20;stroke-miterlimit:10;}
</style>
<path class="st0" d="M-340.6,1205.5h-33.8c-4.5,0-8.1-3.7-8.1-8.1V966.6c0-4.5,3.7-8.1,8.1-8.1h33.8c4.5,0,8.1,3.7,8.1,8.1v230.7
	C-332.4,1201.8-336.1,1205.5-340.6,1205.5z"/>
<path class="st0" d="M-247.6,1205.5h-33.8c-4.5,0-8.1-3.7-8.1-8.1V966.6c0-4.5,3.7-8.1,8.1-8.1h33.8c4.5,0,8.1,3.7,8.1,8.1v230.7
	C-239.4,1201.8-243.1,1205.5-247.6,1205.5z"/>
</svg>
